Genre:Action | Crime | Drama
Language:English
IMDb:  http://www.imdb.com/title/tt1809362/
Source:kralcx Thanks!
Encoder:Tony 
http://img818.imageshack.us/img818/1003/vlcsnap2012012716h23m04.png 
http://img822.imageshack.us/img822/2930/vlcsnap2012012716h23m20.png

Format : AVI
Format/Info : Audio Video Interleave
File size : 511 MiB
Duration : 1h 2mn
Overall bit rate : 1 146 Kbps

Video
ID : 0
Format : MPEG-4 Visual
Format profile : Advanced Simple@L5
Format settings, BVOP : 1
Format settings, QPel : No
Format settings, GMC : No warppoints
Format settings, Matrix : Default (H.263)
Codec ID : XVID
Codec ID/Hint : XviD
Duration : 1h 2mn
Bit rate : 689 Kbps
Width : 640 pixels
Height : 360 pixels
Display aspect ratio : 16:9
Frame rate : 24.000 fps
Color space : YUV
Chroma subsampling : 4:2:0
Bit depth : 8 bits
Scan type : Progressive
Compression mode : Lossy
Bits/(Pixel*Frame) : 0.125
Stream size : 307 MiB (60%)
Writing library : XviD 1.2.1 (UTC 2008-12-04)

Audio
ID : 1
Format : AC-3
Format/Info : Audio Coding 3
Mode extension : CM (complete main)
Codec ID : 2000
Duration : 1h 2mn
Bit rate mode : Constant
Bit rate : 448 Kbps
Channel(s) : 2 channels
Channel positions : Front: L R
Sampling rate : 48.0 KHz
Bit depth : 16 bits
Compression mode : Lossy
Stream size : 200 MiB (39%)
Alignment : Aligned on interleaves
Interleave, duration : 42 ms (1.00 video frame)
Interleave, preload duration : 512 ms


Plot:
A unique story of redemption and an exploration of good and evil featuring a hit man and a priest